<?xml version="1.0" ?><svg id="cat" style="enable-background:new 0 0 300 300;" version="1.1" viewBox="0 0 300 300" xml:space="preserve" xmlns="http://www.w3.org/2000/svg" xmlns:xlink="http://www.w3.org/1999/xlink"><g><path d="   M68,110.36V49.768c0-4.412,2.059-5.034,4.583-1.42l29.071,41.642" style="fill-rule:evenodd;clip-rule:evenodd;fill:none;stroke:#000000;stroke-width:8;stroke-linecap:round;stroke-linejoin:round;stroke-miterlimit:10;"/><path d="   M236,112.473V49.768c0-4.412-2.059-5.034-4.583-1.42L202.375,89.95" style="fill-rule:evenodd;clip-rule:evenodd;fill:none;stroke:#000000;stroke-width:8;stroke-linecap:round;stroke-linejoin:round;stroke-miterlimit:10;"/><ellipse cx="152" cy="172" rx="112" ry="90" style="fill-rule:evenodd;clip-rule:evenodd;fill:none;stroke:#000000;stroke-width:8;stroke-linecap:round;stroke-linejoin:round;stroke-miterlimit:10;"/><path d="   M151.762,215.055c-2.078,3.922-5.444,3.93-7.525,0l-7.385-13.951c-2.078-3.922-0.225-7.104,4.151-7.104h13.995   c4.37,0,6.232,3.174,4.151,7.104L151.762,215.055z" style="fill-rule:evenodd;clip-rule:evenodd;fill:none;stroke:#000000;stroke-width:8;stroke-linecap:round;stroke-linejoin:round;stroke-miterlimit:10;"/><circle cx="108" cy="158" r="16" style="fill-rule:evenodd;clip-rule:evenodd;fill:none;stroke:#000000;stroke-width:8;stroke-linecap:round;stroke-linejoin:round;stroke-miterlimit:10;"/><circle cx="104" cy="162" r="8" style="fill-rule:evenodd;clip-rule:evenodd;"/><circle cx="196" cy="158" r="16" style="fill-rule:evenodd;clip-rule:evenodd;fill:none;stroke:#000000;stroke-width:8;stroke-linecap:round;stroke-linejoin:round;stroke-miterlimit:10;"/><circle cx="192" cy="162" r="8" style="fill-rule:evenodd;clip-rule:evenodd;"/><path d="   M148,218c0,0-13,12-26,12s-26-12-26-12" style="fill:none;stroke:#000000;stroke-width:8;stroke-linecap:round;stroke-linejoin:round;stroke-miterlimit:10;"/><path d="   M200,218c0,0-13,12-26,12c-13,0-26-12-26-12" style="fill:none;stroke:#000000;stroke-width:8;stroke-linecap:round;stroke-linejoin:round;stroke-miterlimit:10;"/><line style="fill:none;stroke:#000000;stroke-width:8;stroke-linecap:round;stroke-linejoin:round;stroke-miterlimit:10;" x1="36" x2="112" y1="186" y2="206"/><line style="fill:none;stroke:#000000;stroke-width:8;stroke-linecap:round;stroke-linejoin:round;stroke-miterlimit:10;" x1="36" x2="112" y1="166" y2="194"/><line style="fill:none;stroke:#000000;stroke-width:8;stroke-linecap:round;stroke-linejoin:round;stroke-miterlimit:10;" x1="196" x2="272" y1="194" y2="174"/><line style="fill:none;stroke:#000000;stroke-width:8;stroke-linecap:round;stroke-linejoin:round;stroke-miterlimit:10;" x1="196" x2="272" y1="206" y2="194"/></g><g/><g/><g/><g/><g/><g/><g/><g/><g/><g/><g/><g/><g/><g/><g/></svg>